<svg xmlns="http://www.w3.org/2000/svg" xmlns:xlink="http://www.w3.org/1999/xlink" viewBox="0 0 332 332"><defs><style>.cls-1,.cls-2{fill:#fedddd;}.cls-1,.cls-7{stroke:#afdbde;stroke-miterlimit:10;stroke-width:3px;}.cls-3{clip-path:url(#clip-path);}.cls-4{fill:#f8a4a4;}.cls-5{fill:#f14547;}.cls-6{fill:#fddddd;}.cls-7{fill:none;}.cls-8{fill:#fff;}</style><clipPath id="clip-path"><circle class="cls-1" cx="166" cy="166" r="164.5"/></clipPath></defs><g id="レイヤー_2" data-name="レイヤー 2"><g id="レイヤー_1-2" data-name="レイヤー 1"><circle class="cls-2" cx="166" cy="166" r="164.5"/><g class="cls-3"><circle class="cls-4" cx="165.76" cy="165.96" r="141.5"/><circle class="cls-5" cx="165.97" cy="166.11" r="111.28"/><path class="cls-6" d="M73.56,113.62h27.13a1.57,1.57,0,0,1,1.57,1.57v42.06c0,22-11,34.58-32.23,34.58-22.63,0-32.23-12.58-32.23-34.58V85.72c0-22,11-34.59,32.23-34.59s32.23,12.58,32.23,34.59V97.51a1.57,1.57,0,0,1-1.57,1.57H83.39a1.57,1.57,0,0,1-1.57-1.57V84.34c0-9.82-4.32-13.56-11.2-13.56s-11.2,3.74-11.2,13.56v74.28c0,9.83,4.32,13.36,11.2,13.36s11.2-3.53,11.2-13.36V134.84a1.57,1.57,0,0,0-1.57-1.57H73.56A1.56,1.56,0,0,1,72,131.71V115.19A1.56,1.56,0,0,1,73.56,113.62Z"/><path class="cls-6" d="M232,162.46h76.32c.81,0,1,.69,1,1.54v16.32c0,.85-.16,1.54-1,1.54H278.53a1.5,1.5,0,0,0-1.46,1.55V296.75a1.51,1.51,0,0,1-1.47,1.54H258.24a1.5,1.5,0,0,1-1.46-1.54V183.41a1.51,1.51,0,0,0-1.47-1.55H232a1.51,1.51,0,0,1-1.47-1.54V164A1.51,1.51,0,0,1,232,162.46Z"/></g><circle class="cls-7" cx="166" cy="166" r="164.5"/><path class="cls-8" d="M165.35,223.21q-13.26,0-22.7-5.22a37.22,37.22,0,0,1-14.43-13.74,35.26,35.26,0,0,1-5-17.06,1.09,1.09,0,0,1,1.09-1.12h23.88a1.09,1.09,0,0,1,1.09,1q.31,7.33,5.13,11a19.11,19.11,0,0,0,11.86,3.9q6.87,0,11.24-3.35t4.36-10.38a13.2,13.2,0,0,0-5.61-11.08q-5.37-4-16.55-4.2a1.11,1.11,0,0,1-1.09-1.1V157a1.1,1.1,0,0,1,1.05-1.1c5.65-.15,10.19-1.61,13.62-4.35q5.46-4.36,5.46-10.14a10.65,10.65,0,0,0-3-7.88q-3-3-9.28-3a14.61,14.61,0,0,0-10.15,3.67,11.9,11.9,0,0,0-4,8.27,1.09,1.09,0,0,1-1.09,1H129a1.09,1.09,0,0,1-1.09-1.11,32.21,32.21,0,0,1,4.74-16.29,33.16,33.16,0,0,1,13.42-12.17q8.67-4.45,20.37-4.45,12.31,0,20.91,4.06a31,31,0,0,1,13.1,10.92A27.16,27.16,0,0,1,205,139.73a21.61,21.61,0,0,1-5,14.36,32.33,32.33,0,0,1-11.12,8.29,1.09,1.09,0,0,0,.05,2,34.33,34.33,0,0,1,13.41,9.14q5.78,6.63,5.77,17.25A28.92,28.92,0,0,1,203,207.61q-5.07,7.33-14.67,11.47T165.35,223.21Z"/></g></g></svg>