<svg xmlns="http://www.w3.org/2000/svg" xmlns:xlink="http://www.w3.org/1999/xlink" viewBox="0 0 306.08 306.08"><defs><style>.cls-1,.cls-2{fill:#fedddd;}.cls-1,.cls-6{stroke:#afdbde;stroke-miterlimit:10;stroke-width:3px;}.cls-3{clip-path:url(#clip-path);}.cls-4{fill:#f8a4a4;}.cls-5{fill:#f14547;}.cls-6{fill:none;}.cls-7{fill:#fddddd;}.cls-8{fill:#fff;}</style><clipPath id="clip-path"><circle class="cls-1" cx="153.04" cy="153.04" r="151.54"/></clipPath></defs><g id="レイヤー_2" data-name="レイヤー 2"><g id="レイヤー_1-2" data-name="レイヤー 1"><circle class="cls-2" cx="153.04" cy="153.04" r="151.54"/><g class="cls-3"><circle class="cls-4" cx="152.82" cy="153" r="130.35"/><circle class="cls-5" cx="153.02" cy="153.14" r="102.52"/></g><circle class="cls-6" cx="153.04" cy="153.04" r="151.54"/><path class="cls-7" d="M66.24,143.08c0-7.11.65-18,1-25.07h-.71c-2.82,6.32-6,12.52-9.16,18.91L42.68,161.36h60.65V181.1H17.85V163.18l40.86-67.3h31.7V207.81H66.24Z"/><path class="cls-8" d="M114,151.34c0-38.09,16-57.58,40-57.58s40.05,19.64,40.05,57.58c0,38.1-16,58.58-40.05,58.58S114,189.44,114,151.34Zm55.57,0c0-30.54-6.8-37.54-15.53-37.54s-15.52,7-15.52,37.54,6.8,38.54,15.52,38.54S169.57,181.89,169.57,151.34Z"/><path class="cls-7" d="M252.37,143.08c0-7.11.64-18,1-25.07h-.7c-2.82,6.32-6,12.52-9.17,18.91L228.8,161.36h60.65V181.1H204V163.18l40.87-67.3h31.7V207.81H252.37Z"/></g></g></svg>