<svg xmlns="http://www.w3.org/2000/svg" viewBox="0 0 79.22 115.42"><defs><style>.cls-1{fill:#fff;}.cls-2{fill:#0070e7;}</style></defs><g id="レイヤー_2" data-name="レイヤー 2"><g id="レイヤー_1-2" data-name="レイヤー 1"><rect class="cls-1" y="36.2" width="79.22" height="79.22" rx="8.69"/><path class="cls-2" d="M70.53,41.2a3.69,3.69,0,0,1,3.69,3.69v61.84a3.69,3.69,0,0,1-3.69,3.69H8.69A3.69,3.69,0,0,1,5,106.73V44.89A3.7,3.7,0,0,1,8.69,41.2H70.53m0-5H8.69A8.69,8.69,0,0,0,0,44.89v61.84a8.69,8.69,0,0,0,8.69,8.69H70.53a8.69,8.69,0,0,0,8.69-8.69V44.89a8.69,8.69,0,0,0-8.69-8.69Z"/><rect class="cls-1" x="31.36" y="30.42" width="17.33" height="13.2"/><rect class="cls-2" x="37.11" y="5.42" width="5" height="65.5"/><polygon class="cls-2" points="60.06 21.99 56.4 25.4 39.62 7.34 22.83 25.4 19.17 21.99 39.62 0 60.06 21.99"/></g></g></svg>