<svg xmlns="http://www.w3.org/2000/svg" viewBox="0 0 56.86 124.82"><defs><style>.cls-1{fill:#fff;}</style></defs><g id="レイヤー_2" data-name="レイヤー 2"><g id="レイヤー_1-2" data-name="レイヤー 1"><path class="cls-1" d="M0,94.65V84.77H18V95.52c0,8.67,3.81,12,9.88,12s9.88-3,9.88-13.69V83.9c0-11.26-3.81-15.42-12.48-15.42H18.9V51.14h6.93c7.11,0,11.44-3.12,11.44-12.83V29.47c0-8.67-4-12.14-9.53-12.14s-9.19,3.3-9.19,11.27v8H.52V30.16C.52,10.75,10.23,0,28.43,0S56.34,10.57,56.34,30v4.33c0,13-4.16,21-13.52,24.45v.34c10.23,3.82,14,12.66,14,25V94.83c0,19.41-9.71,30-28.43,30S0,114.07,0,94.65Z"/></g></g></svg>